# xmcd CD database file
#
# Track frame offsets:
#	150
#	12760
#	27592
#	46842
#	63055
#	78760
#	96305
#	111400
#	125665
#	140970
#	154677
#
# Disc length: 2238 seconds
#
# Revision: 2
# Processed by: cddbd v1.4PL0 Copyright (c) Steve Scherf et al.
# Submitted via: CDex 1.50beta9
#
DISCID=8f08bc0b
DTITLE=Joe Diffie - Third rock from the sun
DYEAR=1998
DGENRE=Country
TTITLE0=Third Rock From The Sun
TTITLE1=Im In Love With a Capital U
TTITLE2=That Road Not Taken
TTITLE3=Pickup Man
TTITLE4=So Help Me Girl 
TTITLE5=Wild Blue Yonder 
TTITLE6=Like to have a [problem like
TTITLE7=Junior's In Love 
TTITLE8=From Here On Out 
TTITLE9=Good Brown Gravy 
TTITLE10=The Cows Came Home
EXTD=good YEAR: 1998
EXTT0=
EXTT1=
EXTT2=
EXTT3=
EXTT4=
EXTT5=
EXTT6=
EXTT7=
EXTT8=
EXTT9=
EXTT10=
PLAYORDER=
